<?xml version="1.0" encoding="UTF-8" standalone="no"?>
<!-- Created with Inkscape (http://www.inkscape.org/) -->

<svg
   width="117.68402mm"
   height="117.68402mm"
   viewBox="0 0 117.68402 117.68402"
   version="1.1"
   id="svg1"
   xmlns="http://www.w3.org/2000/svg"
   xmlns:svg="http://www.w3.org/2000/svg">
  <defs
     id="defs1" />
  <g
     id="layer1"
     transform="translate(-1.1579895,-1.1579895)">
    <circle
       style="fill:#1a1a1a;stroke-width:3.80583"
       id="path3"
       cx="60"
       cy="60"
       r="58.84201" />
  </g>
  <g
     id="g2"
     transform="matrix(0.81946253,0,0,0.81946253,-35.874216,-62.848172)">
    <path
       id="path1-82"
       style="fill:#ffffff;stroke-width:3.25914"
       d="M 50.112965,3.6782361 C 43.545529,3.6083706 6.5064265,39.867363 6.4365609,46.434799 6.3666954,53.002236 42.626205,90.041338 49.193641,90.111203 c 1.233592,0.01312 3.542861,-1.25695 6.479708,-3.36982 C 43.226603,77.455713 19.079527,51.796026 19.136561,46.434799 19.193303,41.100955 43.634822,16.183755 56.333257,7.0480562 53.532894,4.958896 51.319174,3.691068 50.112965,3.6782361 Z"
       transform="translate(55.346748,101.60526)" />
    <path
       style="fill:#ffffff;stroke-width:3.25914"
       id="path1-82-7-7"
       d="M 49.193505,90.111458 C 42.626069,90.041592 6.3666657,53.002426 6.4365312,46.43499 6.5063967,39.867554 43.545563,3.6081513 50.112999,3.6780168 56.680435,3.7478823 92.939838,40.787048 92.869972,47.354484 92.800107,53.92192 55.760941,90.181323 49.193505,90.111458 Z"
       transform="translate(76.513428,101.60526)" />
  </g>
</svg>
